<?xml version="1.0" encoding="UTF-8"?>
<svg width="78px" height="46px" viewBox="0 0 78 46" version="1.1" xmlns="http://www.w3.org/2000/svg" xmlns:xlink="http://www.w3.org/1999/xlink">
    <g id="Page-1" stroke="none" stroke-width="1" fill="none" fill-rule="evenodd">
        <g id="Group-3">
            <g id="Group-2">
                <g id="Group">
                    <rect id="Rectangle" stroke="currentColor" x="0.5" y="0.5" width="17" height="13"></rect>
                    <polygon id="Tracciato_17" fill="currentColor" fill-rule="nonzero" points="7.04 5.652 9.69 10.29 11.895 8.085 14.217 10.985 15.317 10.106 12.017 5.977 10.003 7.991 7.023 2.787 2.901 10.207 4.13 10.889"></polygon>
                </g>
                <g id="Group" transform="translate(20.000000, 0.000000)">
                    <rect id="Rectangle" stroke="currentColor" x="0.5" y="0.5" width="17" height="13"></rect>
                    <polygon id="Tracciato_17" fill="currentColor" fill-rule="nonzero" points="7.04 5.652 9.69 10.29 11.895 8.085 14.217 10.985 15.317 10.106 12.017 5.977 10.003 7.991 7.023 2.787 2.901 10.207 4.13 10.889"></polygon>
                </g>
                <g id="Group" transform="translate(40.000000, 0.000000)">
                    <rect id="Rectangle" stroke="currentColor" x="0.5" y="0.5" width="17" height="13"></rect>
                    <polygon id="Tracciato_17" fill="currentColor" fill-rule="nonzero" points="7.04 5.652 9.69 10.29 11.895 8.085 14.217 10.985 15.317 10.106 12.017 5.977 10.003 7.991 7.023 2.787 2.901 10.207 4.13 10.889"></polygon>
                </g>
                <g id="Group" transform="translate(60.000000, 0.000000)">
                    <rect id="Rectangle" stroke="currentColor" x="0.5" y="0.5" width="17" height="13"></rect>
                    <polygon id="Tracciato_17" fill="currentColor" fill-rule="nonzero" points="7.04 5.652 9.69 10.29 11.895 8.085 14.217 10.985 15.317 10.106 12.017 5.977 10.003 7.991 7.023 2.787 2.901 10.207 4.13 10.889"></polygon>
                </g>
            </g>
            <g id="Group-2" transform="translate(0.000000, 16.000000)">
                <g id="Group">
                    <rect id="Rectangle" stroke="currentColor" x="0.5" y="0.5" width="17" height="13"></rect>
                    <polygon id="Tracciato_17" fill="currentColor" fill-rule="nonzero" points="7.04 5.652 9.69 10.29 11.895 8.085 14.217 10.985 15.317 10.106 12.017 5.977 10.003 7.991 7.023 2.787 2.901 10.207 4.13 10.889"></polygon>
                </g>
                <g id="Group" transform="translate(20.000000, 0.000000)">
                    <rect id="Rectangle" stroke="currentColor" x="0.5" y="0.5" width="17" height="13"></rect>
                    <polygon id="Tracciato_17" fill="currentColor" fill-rule="nonzero" points="7.04 5.652 9.69 10.29 11.895 8.085 14.217 10.985 15.317 10.106 12.017 5.977 10.003 7.991 7.023 2.787 2.901 10.207 4.13 10.889"></polygon>
                </g>
                <g id="Group" transform="translate(40.000000, 0.000000)">
                    <rect id="Rectangle" stroke="currentColor" x="0.5" y="0.5" width="17" height="13"></rect>
                    <polygon id="Tracciato_17" fill="currentColor" fill-rule="nonzero" points="7.04 5.652 9.69 10.29 11.895 8.085 14.217 10.985 15.317 10.106 12.017 5.977 10.003 7.991 7.023 2.787 2.901 10.207 4.13 10.889"></polygon>
                </g>
                <g id="Group" transform="translate(60.000000, 0.000000)">
                    <rect id="Rectangle" stroke="currentColor" x="0.5" y="0.5" width="17" height="13"></rect>
                    <polygon id="Tracciato_17" fill="currentColor" fill-rule="nonzero" points="7.04 5.652 9.69 10.29 11.895 8.085 14.217 10.985 15.317 10.106 12.017 5.977 10.003 7.991 7.023 2.787 2.901 10.207 4.13 10.889"></polygon>
                </g>
            </g>
            <g id="Group-2" transform="translate(0.000000, 32.000000)">
                <g id="Group">
                    <rect id="Rectangle" stroke="currentColor" x="0.5" y="0.5" width="17" height="13"></rect>
                    <polygon id="Tracciato_17" fill="currentColor" fill-rule="nonzero" points="7.04 5.652 9.69 10.29 11.895 8.085 14.217 10.985 15.317 10.106 12.017 5.977 10.003 7.991 7.023 2.787 2.901 10.207 4.13 10.889"></polygon>
                </g>
                <g id="Group" transform="translate(20.000000, 0.000000)">
                    <rect id="Rectangle" stroke="currentColor" x="0.5" y="0.5" width="17" height="13"></rect>
                    <polygon id="Tracciato_17" fill="currentColor" fill-rule="nonzero" points="7.04 5.652 9.69 10.29 11.895 8.085 14.217 10.985 15.317 10.106 12.017 5.977 10.003 7.991 7.023 2.787 2.901 10.207 4.13 10.889"></polygon>
                </g>
                <g id="Group" transform="translate(40.000000, 0.000000)">
                    <rect id="Rectangle" stroke="currentColor" x="0.5" y="0.5" width="17" height="13"></rect>
                    <polygon id="Tracciato_17" fill="currentColor" fill-rule="nonzero" points="7.04 5.652 9.69 10.29 11.895 8.085 14.217 10.985 15.317 10.106 12.017 5.977 10.003 7.991 7.023 2.787 2.901 10.207 4.13 10.889"></polygon>
                </g>
                <g id="Group" transform="translate(60.000000, 0.000000)">
                    <rect id="Rectangle" stroke="currentColor" x="0.5" y="0.5" width="17" height="13"></rect>
                    <polygon id="Tracciato_17" fill="currentColor" fill-rule="nonzero" points="7.04 5.652 9.69 10.29 11.895 8.085 14.217 10.985 15.317 10.106 12.017 5.977 10.003 7.991 7.023 2.787 2.901 10.207 4.13 10.889"></polygon>
                </g>
            </g>
        </g>
    </g>
</svg>