<svg xmlns="http://www.w3.org/2000/svg" xmlns:xlink="http://www.w3.org/1999/xlink" width="36" height="36" viewBox="0 0 36 36">
  <defs>
    <clipPath id="clip-numbers-block">
      <rect width="36" height="36"/>
    </clipPath>
  </defs>
  <g id="numbers-block" clip-path="url(#clip-numbers-block)">
    <g id="numbers-block-2" data-name="numbers-block">
      <path id="Tracciato_23" data-name="Tracciato 23" d="M7.448,15.592V8.782H7.359L5.416,10.148V8.443L7.448,7H9.254v8.59Z" transform="translate(0.344 7.241)" fill-rule="evenodd"/>
      <path id="Tracciato_25" data-name="Tracciato 25" d="M10.389,23.4H4.5v-1.27l2.7-2.841a5.7,5.7,0,0,0,.757-1.051,1.787,1.787,0,0,0,.243-.8,1.155,1.155,0,0,0-.245-.774.913.913,0,0,0-.736-.289.79.79,0,0,0-.69.372,1.665,1.665,0,0,0-.251.95H4.378l-.012-.035a2.627,2.627,0,0,1,.762-1.978,2.8,2.8,0,0,1,2.1-.811,3.17,3.17,0,0,1,2.163.681,2.353,2.353,0,0,1,.777,1.865,2.46,2.46,0,0,1-.413,1.409,17.84,17.84,0,0,1-1.522,1.819L7.092,21.863l.017.035h3.28Z" transform="translate(10.623 -0.627)" fill-rule="evenodd"/>
      <path id="Tracciato_26" data-name="Tracciato 26" d="M6.3,26.381h.918a1.094,1.094,0,0,0,.808-.283,1.061,1.061,0,0,0,.283-.785.943.943,0,0,0-.254-.67.964.964,0,0,0-.739-.271,1.076,1.076,0,0,0-.67.219.68.68,0,0,0-.289.566H4.465l-.012-.035a1.86,1.86,0,0,1,.791-1.629,3.229,3.229,0,0,1,2-.624,3.514,3.514,0,0,1,2.189.627,2.1,2.1,0,0,1,.82,1.776A1.739,1.739,0,0,1,9.9,26.326a2.379,2.379,0,0,1-.95.754,2.26,2.26,0,0,1,1.057.754,1.951,1.951,0,0,1,.381,1.21,2.144,2.144,0,0,1-.884,1.816,3.667,3.667,0,0,1-2.258.661,3.518,3.518,0,0,1-2.07-.621,2,2,0,0,1-.858-1.8l.012-.035H6.238a.865.865,0,0,0,.315.679,1.124,1.124,0,0,0,.765.274,1.146,1.146,0,0,0,.82-.289A.958.958,0,0,0,8.444,29a1.126,1.126,0,0,0-.321-.892,1.33,1.33,0,0,0-.9-.28H6.3Z" transform="translate(20.857 -8.687)" fill-rule="evenodd"/>
      <g id="image-fit" transform="translate(-7 -4)">
        <path id="Tracciato_27" data-name="Tracciato 27" d="M7,13l2-2V33.89l-2-2H42.983l-2,2V11l2,2Zm35.983-2V33.89H7V11Z"/>
      </g>
    </g>
  </g>
</svg>
