<?xml version="1.0" encoding="UTF-8"?>
<svg width="201px" height="143px" viewBox="0 0 201 143" version="1.1" xmlns="http://www.w3.org/2000/svg" xmlns:xlink="http://www.w3.org/1999/xlink">

    <g id="Page-1" stroke="none" stroke-width="1" fill="none" fill-rule="evenodd">
        <g id="Group-2" stroke="currentColor">
            <g id="Group">
                <path d="M20.5,1.12977573 L14.9541802,12.3668339 L2.55335024,14.16878 L11.5266751,22.91561 L9.40836047,35.2663321 L20.5,29.4351121 L31.5916395,35.2663321 L29.4733249,22.91561 L38.4466498,14.16878 L26.0458198,12.3668339 L20.5,1.12977573 Z" id="Star" fill="currentColor"></path>
                <line x1="11.5" y1="54" x2="86" y2="54" id="Line" stroke-width="14" stroke-linecap="square"></line>
                <line x1="5.5" y1="83" x2="86" y2="83" id="Line" stroke-width="6" stroke-linecap="square"></line>
                <line x1="5.5" y1="98" x2="86" y2="98" id="Line" stroke-width="6" stroke-linecap="square"></line>
                <line x1="5.5" y1="112" x2="86" y2="112" id="Line" stroke-width="6" stroke-linecap="square"></line>
                <line x1="5.5" y1="126" x2="86" y2="126" id="Line" stroke-width="6" stroke-linecap="square"></line>
                <line x1="5.5" y1="140" x2="86" y2="140" id="Line" stroke-width="6" stroke-linecap="square"></line>
                <line x1="61" y1="18" x2="79" y2="18" id="Line" stroke-width="14" stroke-linecap="square"></line>
                <line x1="0.5" y1="68" x2="95.5" y2="68.5" id="Line-2" stroke-linecap="square"></line>
            </g>
            <g id="Group" transform="translate(105.000000, 0.000000)">
                <path d="M20.5,1.12977573 L14.9541802,12.3668339 L2.55335024,14.16878 L11.5266751,22.91561 L9.40836047,35.2663321 L20.5,29.4351121 L31.5916395,35.2663321 L29.4733249,22.91561 L38.4466498,14.16878 L26.0458198,12.3668339 L20.5,1.12977573 Z" id="Star" fill="currentColor"></path>
                <line x1="11.5" y1="54" x2="86" y2="54" id="Line" stroke-width="14" stroke-linecap="square"></line>
                <line x1="5.5" y1="83" x2="86" y2="83" id="Line" stroke-width="6" stroke-linecap="square"></line>
                <line x1="5.5" y1="98" x2="86" y2="98" id="Line" stroke-width="6" stroke-linecap="square"></line>
                <line x1="5.5" y1="112" x2="86" y2="112" id="Line" stroke-width="6" stroke-linecap="square"></line>
                <line x1="5.5" y1="126" x2="86" y2="126" id="Line" stroke-width="6" stroke-linecap="square"></line>
                <line x1="5.5" y1="140" x2="86" y2="140" id="Line" stroke-width="6" stroke-linecap="square"></line>
                <line x1="61" y1="18" x2="79" y2="18" id="Line" stroke-width="14" stroke-linecap="square"></line>
                <line x1="0.5" y1="68" x2="95.5" y2="68.5" id="Line-2" stroke-linecap="square"></line>
            </g>
        </g>
    </g>
</svg>