<svg xmlns="http://www.w3.org/2000/svg" width="38.906" height="34.16" viewBox="0 0 38.906 34.16">
  <defs>
    <style>
      .cls-1 {
        fill: #000094;
      }
    </style>
  </defs>
  <path id="Tracciato_1" data-name="Tracciato 1" class="cls-1" d="M5.918-59.121V-70.43a25.813,25.813,0,0,1,1.406-8.115,37.109,37.109,0,0,1,3.838-8.115,31.321,31.321,0,0,1,5.479-6.621l8.438,4.57a36.589,36.589,0,0,0-3.545,8.467,37.006,37.006,0,0,0-1.2,9.814v11.309Zm19.746,0V-70.43a25.813,25.813,0,0,1,1.406-8.115,37.109,37.109,0,0,1,3.838-8.115,31.321,31.321,0,0,1,5.479-6.621l8.438,4.57a36.589,36.589,0,0,0-3.545,8.467,37.006,37.006,0,0,0-1.2,9.814v11.309Z" transform="translate(-5.918 93.281)"/>
</svg>
